<svg xmlns="http://www.w3.org/2000/svg" viewBox="0 0 1600 1000"><defs><linearGradient id="bg" x1="0" y1="0" x2="1" y2="1"><stop stop-color="#05070c"/><stop offset="1" stop-color="#101826"/></linearGradient></defs><rect width="1600" height="1000" fill="url(#bg)"/><g transform="translate(160 155)"><path d="M210 60 420 0l180 75 180-75 210 60 160 160-160 155-110-95v470H320V280l-110 95L50 220Z" fill="#0b0d12" stroke="#2b3440" stroke-width="4"/><path d="M532 130h136v150H532z" fill="#10151c"/><text x="520" y="230" fill="#00AEEF" font-family="Arial" font-size="58" font-weight="700">Seska</text><path d="M515 292h210" stroke="#FF007F" stroke-width="7"/><path d="M515 310h140" stroke="#FFE600" stroke-width="7"/></g><g transform="translate(1060 190)"><circle cx="160" cy="160" r="150" fill="#090b10" stroke="#2e3743" stroke-width="5"/><path d="M50 165c25-95 195-145 235-25l25 170H25z" fill="#0c1016"/><text x="85" y="190" fill="#00AEEF" font-family="Arial" font-size="48" font-weight="700">SESKA</text></g><text x="100" y="105" fill="#fff" font-family="Arial" font-size="32" font-weight="700" letter-spacing="8">CORPORATE APPAREL / EMBROIDERY</text><text x="100" y="925" fill="#fff" font-family="Arial" font-size="92" font-weight="900" letter-spacing="-4">YOUR BRAND, WORN WELL.</text><rect x="100" y="955" width="1080" height="8" fill="#00AEEF"/><rect x="1180" y="955" width="160" height="8" fill="#FF007F"/><rect x="1340" y="955" width="160" height="8" fill="#FFE600"/></svg>