<svg xmlns="http://www.w3.org/2000/svg" viewBox="0 0 1600 1000"><defs><linearGradient id="bg" x1="0" x2="1"><stop stop-color="#f4f0ea"/><stop offset="1" stop-color="#d7d9dc"/></linearGradient></defs><rect width="1600" height="1000" fill="url(#bg)"/><rect x="120" y="160" width="980" height="470" rx="18" fill="#1b1f25"/><rect x="165" y="205" width="890" height="125" rx="8" fill="#b62938"/><rect x="180" y="370" width="860" height="200" fill="#e9eef1"/><g fill="#343a42"><rect x="190" y="350" width="70" height="24"/><rect x="280" y="350" width="70" height="24"/><rect x="370" y="350" width="70" height="24"/><rect x="460" y="350" width="70" height="24"/><rect x="550" y="350" width="70" height="24"/><rect x="640" y="350" width="70" height="24"/><rect x="730" y="350" width="70" height="24"/><rect x="820" y="350" width="70" height="24"/></g><rect x="1120" y="245" width="310" height="250" rx="12" fill="#fff"/><text x="1190" y="360" fill="#00AEEF" font-family="Arial" font-size="58" font-weight="700">SESKA</text><g transform="translate(1120 570)"><rect width="330" height="190" rx="14" fill="#131820"/><rect x="36" y="36" width="95" height="118" fill="#00AEEF"/><rect x="118" y="36" width="95" height="118" fill="#FF007F"/><rect x="200" y="36" width="95" height="118" fill="#FFE600"/></g><text x="100" y="105" fill="#27303a" font-family="Arial" font-size="32" font-weight="700" letter-spacing="8">NASSER ROAD / KAMPALA / REAL PRODUCTION</text><text x="100" y="905" fill="#0a1016" font-family="Arial" font-size="86" font-weight="900" letter-spacing="-4">BUILT HERE. DELIVERED ACROSS UGANDA.</text></svg>